<?xml version="1.0" standalone="no"?>
<!DOCTYPE svg PUBLIC "-//W3C//DTD SVG 20010904//EN"
 "http://www.w3.org/TR/2001/REC-SVG-20010904/DTD/svg10.dtd">
<svg version="1.0" xmlns="http://www.w3.org/2000/svg"
 width="650.000000pt" height="1280.000000pt" viewBox="0 0 650.000000 1280.000000"
 preserveAspectRatio="xMidYMid meet">
<metadata>
Created by potrace 1.15, written by Peter Selinger 2001-2017
</metadata>
<g transform="translate(0.000000,1280.000000) scale(0.100000,-0.100000)"
fill="#000000" stroke="none">
<path d="M4733 12781 c-17 -11 -34 -29 -38 -40 -22 -69 102 -115 152 -56 30
34 29 60 -2 90 -29 30 -68 32 -112 6z"/>
<path d="M4539 12737 c-18 -14 -39 -50 -39 -67 0 -20 49 -60 74 -60 14 0 31 9
40 22 45 64 -17 150 -75 105z"/>
<path d="M4 12609 c15 -91 113 -259 152 -259 27 0 16 72 -24 156 -46 93 -86
144 -114 144 -18 0 -20 -4 -14 -41z"/>
<path d="M3826 12061 c-10 -11 -16 -28 -14 -38 5 -29 37 -27 69 3 28 26 29 30
13 41 -25 18 -48 16 -68 -6z"/>
<path d="M320 11939 c0 -41 55 -171 84 -198 23 -22 24 -22 30 -3 14 44 -70
232 -104 232 -6 0 -10 -14 -10 -31z"/>
<path d="M504 11575 c11 -93 154 -347 164 -292 2 9 -2 34 -8 55 -19 56 -106
223 -136 257 l-25 30 5 -50z"/>
<path d="M2863 10695 c-65 -20 -123 -58 -185 -122 -72 -74 -89 -95 -124 -163
-24 -47 -28 -67 -29 -135 0 -95 17 -136 105 -243 89 -109 93 -122 100 -308 6
-175 12 -194 60 -194 39 0 70 41 70 94 0 22 5 73 11 111 13 96 51 154 179 279
122 117 146 159 156 267 13 143 -24 279 -94 353 -68 71 -152 92 -249 61z"/>
<path d="M1114 10274 c-55 -27 -77 -59 -82 -117 -9 -109 70 -307 167 -419 113
-131 209 -325 359 -723 119 -317 192 -499 295 -735 112 -256 224 -528 406
-983 133 -333 254 -631 501 -1232 43 -104 131 -316 195 -470 194 -464 387
-935 495 -1204 111 -279 211 -490 350 -741 107 -192 146 -278 172 -375 44
-162 65 -544 33 -605 -10 -18 -36 -40 -68 -56 -75 -39 -111 -69 -164 -138
-107 -142 -160 -332 -119 -430 23 -56 170 -141 348 -200 107 -36 148 -35 195
8 78 69 90 68 173 -10 69 -64 153 -111 261 -144 106 -33 160 -70 139 -95 -7
-8 -27 -15 -45 -15 -70 0 -222 -156 -304 -314 -54 -101 -40 -141 81 -242 97
-80 116 -116 128 -242 5 -55 18 -123 28 -150 42 -110 140 -216 251 -272 106
-53 300 -67 386 -26 71 33 160 103 246 193 88 92 126 146 170 237 37 77 76
108 103 80 9 -8 16 -24 16 -34 0 -26 30 -40 87 -40 94 0 151 52 137 126 -10
53 -74 141 -156 215 -91 82 -177 186 -213 259 -49 99 -109 139 -135 90 -14
-26 5 -62 65 -130 54 -61 86 -121 125 -239 34 -102 40 -171 13 -171 -25 0
-108 67 -250 203 -211 200 -245 217 -413 198 -145 -17 -156 -11 -135 72 16 63
27 74 60 59 22 -10 33 -9 60 3 82 40 135 155 135 296 0 62 12 63 82 3 134
-116 173 -88 103 76 -26 62 -27 69 -22 195 4 101 11 150 31 219 33 110 31 137
-9 150 -50 17 -155 89 -247 170 -131 115 -138 147 -20 87 75 -38 172 -112 206
-156 28 -36 53 -44 74 -23 31 31 -2 119 -72 187 -38 38 -51 44 -88 45 -38 1
-45 5 -71 44 -33 49 -64 67 -128 77 -63 9 -118 -8 -158 -49 -19 -19 -47 -38
-62 -41 -68 -15 -168 66 -286 232 -85 120 -115 147 -159 139 -27 -6 -36 -2
-59 25 -34 41 -124 221 -159 317 -33 92 -33 126 -1 164 30 36 30 38 4 72 -13
17 -34 28 -61 32 -49 8 -84 52 -124 157 -44 117 -106 244 -210 433 -248 453
-865 1776 -1344 2884 -472 1092 -534 1230 -599 1340 -23 38 -63 134 -90 217
-27 81 -99 268 -160 415 -124 300 -134 331 -129 373 3 26 12 34 65 60 34 17
76 43 92 59 153 147 -6 439 -326 600 -60 30 -122 34 -169 10z"/>
<path d="M3893 10129 c-95 -37 -172 -137 -173 -224 0 -133 188 -302 310 -279
84 16 155 77 208 179 32 61 36 152 9 202 -63 119 -221 173 -354 122z"/>
<path d="M142 9998 c-17 -17 -15 -32 6 -51 26 -23 46 -21 79 8 27 24 28 25 9
40 -24 18 -77 20 -94 3z"/>
<path d="M545 9019 c-8 -23 1 -79 17 -114 24 -53 68 -36 68 26 0 29 -8 47 -31
74 -36 40 -45 43 -54 14z"/>
<path d="M690 8856 c0 -17 15 -42 41 -71 34 -37 43 -54 47 -94 3 -32 -1 -58
-12 -79 -16 -30 -19 -32 -75 -32 -178 0 -263 -67 -139 -110 53 -18 79 -65 103
-184 31 -153 87 -226 223 -293 64 -32 88 -39 154 -42 69 -3 84 0 142 27 85 40
192 144 236 232 48 93 53 193 16 304 -67 199 -165 264 -460 307 -77 12 -159
28 -181 36 -22 8 -52 17 -67 20 -25 5 -28 2 -28 -21z"/>
<path d="M289 8813 c-49 -44 -69 -86 -69 -143 0 -57 42 -100 97 -100 75 0 213
89 213 137 0 58 -96 143 -161 143 -31 0 -48 -8 -80 -37z"/>
<path d="M2435 8489 c-50 -25 -119 -92 -141 -137 -15 -32 -15 -35 12 -90 15
-31 55 -85 89 -119 58 -60 62 -62 100 -56 73 11 136 52 179 117 45 67 32 191
-27 254 -51 55 -138 68 -212 31z"/>
<path d="M3700 8388 c-54 -28 -72 -59 -67 -116 9 -86 119 -182 209 -182 90 0
138 46 138 132 0 60 -41 143 -82 168 -47 28 -139 27 -198 -2z"/>
<path d="M221 8156 c-18 -21 -10 -97 11 -110 26 -16 72 22 76 62 5 48 -59 83
-87 48z"/>
<path d="M4170 8110 c-43 -43 -11 -120 50 -120 38 0 70 32 70 70 0 38 -32 70
-70 70 -17 0 -39 -9 -50 -20z"/>
<path d="M4549 7959 c-25 -25 -24 -52 4 -85 27 -32 78 -37 104 -11 14 13 14
20 4 46 -25 58 -79 83 -112 50z"/>
<path d="M3674 7955 c-16 -40 25 -145 55 -145 18 0 81 62 81 80 0 14 -29 39
-71 60 -46 24 -58 25 -65 5z"/>
<path d="M4731 7918 c-11 -30 -3 -56 21 -69 46 -25 64 18 27 65 -25 32 -37 33
-48 4z"/>
<path d="M5061 7916 c-49 -17 -71 -50 -71 -103 0 -78 76 -127 141 -93 55 30
65 144 14 187 -29 26 -36 27 -84 9z"/>
<path d="M1229 7869 c-18 -18 -19 -23 -6 -42 29 -43 103 -40 131 6 9 15 7 22
-13 38 -31 25 -85 25 -112 -2z"/>
<path d="M2882 7879 c-12 -4 -25 -15 -28 -23 -13 -33 59 -119 114 -137 29 -10
38 -9 60 8 51 38 45 101 -13 134 -38 21 -103 30 -133 18z"/>
<path d="M5429 7811 c-24 -24 -29 -38 -29 -76 0 -38 5 -52 29 -76 24 -24 38
-29 75 -29 38 0 48 4 63 26 9 14 18 50 21 79 4 47 1 57 -21 79 -38 38 -98 36
-138 -3z"/>
<path d="M3054 7296 c-119 -29 -236 -139 -310 -291 -53 -110 -57 -163 -19
-283 48 -153 130 -246 282 -323 126 -64 171 -106 128 -123 -26 -9 -48 -75 -41
-119 10 -62 32 -96 122 -188 l84 -86 -6 -45 c-17 -126 93 -205 178 -129 30 27
33 35 33 85 0 54 -2 59 -42 97 -48 45 -53 67 -22 95 12 10 33 39 48 64 22 38
26 57 26 120 0 91 -20 137 -76 174 -58 39 -52 56 45 151 46 44 94 101 106 126
69 133 66 271 -8 414 -72 136 -202 229 -365 260 -91 17 -95 17 -163 1z"/>
<path d="M5683 5090 c-29 -12 -43 -40 -43 -89 0 -52 8 -71 36 -81 58 -23 144
40 144 105 0 59 -70 92 -137 65z"/>
<path d="M4742 4943 c-78 -83 -114 -233 -78 -328 20 -52 106 -135 141 -135 12
0 55 16 94 36 120 60 134 109 69 237 -68 137 -137 227 -171 227 -11 0 -36 -17
-55 -37z"/>
<path d="M4200 4689 c-19 -12 -40 -29 -47 -38 -38 -49 -17 -138 45 -192 31
-27 41 -31 78 -26 75 8 144 81 144 153 0 87 -39 124 -132 124 -36 0 -64 -7
-88 -21z"/>
<path d="M2432 4648 c-15 -15 -15 -48 -1 -85 26 -69 107 -109 156 -78 20 13
23 22 18 43 -8 35 -60 88 -107 113 -44 22 -50 23 -66 7z"/>
<path d="M4744 4159 c-44 -13 -97 -74 -88 -102 8 -28 52 -75 86 -93 44 -23
112 -18 145 10 22 19 28 32 27 65 -3 88 -84 145 -170 120z"/>
<path d="M3060 4075 c-15 -18 -1 -75 26 -110 15 -20 15 -20 30 -1 16 23 19 79
4 107 -13 23 -43 25 -60 4z"/>
<path d="M2011 4012 c-46 -36 -121 -139 -121 -166 1 -53 136 -185 191 -186 66
0 189 140 189 215 0 53 -141 166 -204 165 -12 -1 -36 -13 -55 -28z"/>
<path d="M2874 3906 c-44 -20 -137 -114 -165 -166 -32 -63 -32 -149 0 -212 28
-55 125 -156 159 -165 36 -9 83 2 156 38 75 37 125 82 142 131 19 51 17 193
-3 235 -19 40 -74 84 -149 119 -67 32 -103 37 -140 20z"/>
<path d="M5070 3907 c-30 -15 -55 -58 -47 -80 10 -25 87 -23 121 4 32 25 33
53 4 73 -27 19 -45 20 -78 3z"/>
<path d="M4260 3823 c0 -23 41 -95 57 -101 41 -13 6 85 -38 108 -15 9 -19 7
-19 -7z"/>
<path d="M3634 3535 c-16 -40 46 -127 100 -141 42 -10 63 15 46 56 -27 66
-131 126 -146 85z"/>
<path d="M4574 3378 c-86 -59 -111 -153 -54 -202 33 -28 101 -42 158 -33 86
15 113 98 56 179 -27 39 -86 88 -104 88 -4 0 -29 -15 -56 -32z"/>
<path d="M3826 3351 c-44 -48 43 -108 98 -68 15 11 17 17 7 35 -11 20 -59 52
-79 52 -5 0 -17 -9 -26 -19z"/>
<path d="M3682 3018 c-19 -19 -14 -55 10 -72 19 -13 25 -14 43 -2 24 16 31 51
15 72 -15 17 -52 18 -68 2z"/>
<path d="M5465 1620 c-13 -21 44 -88 64 -75 15 9 14 58 -1 73 -14 14 -54 16
-63 2z"/>
<path d="M6166 889 c-40 -31 -32 -63 16 -67 47 -4 78 12 78 41 0 49 -48 62
-94 26z"/>
<path d="M6014 731 c-78 -39 -157 -120 -196 -198 -27 -56 -30 -69 -27 -140 5
-103 39 -173 128 -263 89 -90 161 -125 256 -125 81 1 133 23 193 83 92 92 138
202 129 304 -11 120 -128 293 -232 343 -25 12 -68 21 -115 23 -68 3 -81 0
-136 -27z"/>
<path d="M4315 611 c-11 -5 -39 -29 -63 -55 -60 -65 -58 -93 11 -163 60 -59
88 -66 130 -33 35 28 67 98 67 149 0 36 -6 49 -34 77 -35 35 -68 42 -111 25z"/>
</g>
</svg>
